<svg xmlns="http://www.w3.org/2000/svg" viewBox="0 0 48 48" width="100" height="100" role="img" aria-label="X Verified Badge">
  <!-- Jagged Star Background (Exact Shape from Wikimedia Commons) -->
  <path d="M24.3 0c0.5 0 1 0.1 1.4 0.3l3.3 0.8 3.1 1.9c1.5 0.9 2.7 2.1 3.6 3.6l1.9 3.1 1.9 3.1c0.9 1.5 1.3 3.1 1.2 4.7l-0.1 3.1-1.9 3.1c-0.9 1.5-2.1 2.7-3.6 3.6l-3.1 1.9-3.1 1.9c-1.5 0.9-3.1 1.3-4.7 1.2l-3.1-0.1-3.1-1.9c-1.5-0.9-2.7-2.1-3.6-3.6l-1.9-3.1-1.9-3.1c-0.9-1.5-1.3-3.1-1.2-4.7l0.1-3.1 1.9-3.1c0.9-1.5 2.1-2.7 3.6-3.6l3.1-1.9 3.1-1.9c1.5-0.9 3.1-1.3 4.7-1.2l0.1 0z" fill="#1DA1F2" stroke="#ffffff" stroke-width="0.75"/>

  <!-- Checkmark -->
  <path d="M16 24l5 5 10-10" fill="none" stroke="#ffffff" stroke-width="3.5" stroke-linecap="round" stroke-linejoin="round"/>
</svg>
