<svg viewBox="0 0 22 22" xmlns="http://www.w3.org/2000/svg">
  <path d="M20.396 11c-.018-.646-.215-1.275-.57-1.816-.354-.54-.852-.974-1.42-1.293-.567-.319-1.194-.504-1.842-.538-.649-.033-1.315.083-1.934.344-.618.26-1.145.656-1.562 1.141-.416.484-.697 1.077-.824 1.728-.127.651-.123 1.35.017 2.073.14.723.435 1.501.874 2.267.44.766 1.016 1.448 1.731 2.005.714.557 1.528.973 2.429 1.25.902.277 1.84.288 2.782.032.943-.256 1.81-.753 2.555-1.485.745-.732 1.325-1.64 1.729-2.713.404-1.073.511-2.3.324-3.616zm-7.268 6.15c-.266.107-.548.197-.842.266-.293.069-.596.103-.904.103-.472 0-.922-.092-1.347-.275-.426-.183-.79-.444-1.09-.779-.3-.335-.53-.735-.684-1.194-.154-.459-.197-1.029-.126-1.703.07-.674.225-1.384.464-2.118.239-.734.567-1.424.979-2.05.412-.626.896-1.135 1.448-1.521.551-.386 1.166-.646 1.836-.776.67-.13 1.366-.123 2.08.03.715.153 1.405.464 2.053.912.648.448 1.23.996 1.736 1.637.506.641.901 1.356 1.181 2.133.28.777.396 1.619.337 2.514-.059.895-.288 1.749-.684 2.544-.396.795-.936 1.492-1.613 2.08-.677.588-1.46.996-2.343 1.222-.883.226-1.786.235-2.695.02z" fill="#1d9bf0"/>
</svg>
