<svg width="100%" height="100%" viewBox="0 0 400 400" xmlns="http://www.w3.org/2000/svg" style="background: #0e0f11;">
  <!-- First star (bright red, centered at 180,250, 0째 rotation, unchanged) -->
  <path
    d="M180 160 L210 70 L240 160 L330 190 L240 220 L210 310 L180 220 L90 190 Z"
    fill="#ff3333"
    stroke="#cc0000"
    stroke-width="4.5"
  >
    <animate
      attributeName="opacity"
      values="1; 0.4; 1"
      dur="2s"
      repeatCount="indefinite"
    />
  </path>

  <!-- Second star (neon blue, centered at 150,220, rotated 45째, shifted up 5 units) -->
  <path
    d="M150 130 L180 40 L210 130 L300 160 L210 190 L180 280 L150 190 L60 160 Z"
    fill="#33ccff"
    stroke="#0099cc"
    stroke-width="4.5"
    transform="rotate(45 150 220)"
  >
    <animate
      attributeName="opacity"
      values="1; 0.4; 1"
      dur="2.3s"
      repeatCount="indefinite"
    />
  </path>

  <!-- Third star (emerald green, centered at 150,160, rotated 90째, unchanged) -->
  <path
    d="M150 70 L180 -20 L210 70 L300 100 L210 130 L180 220 L150 130 L60 100 Z"
    fill="#33cc99"
    stroke="#009966"
    stroke-width="4.5"
    transform="rotate(90 150 160)"
  >
    <animate
      attributeName="opacity"
      values="1; 0.4; 1"
      dur="2.5s"
      repeatCount="indefinite"
    />
  </path>

  <!-- Fourth star (golden yellow, centered at 190,135, rotated 135째, shifted up 5 units) -->
  <path
    d="M190 45 L220 -45 L250 45 L340 75 L250 105 L220 195 L190 105 L100 75 Z"
    fill="#ffcc33"
    stroke="#cc9900"
    stroke-width="4.5"
    transform="rotate(135 190 135)"
  >
    <animate
      attributeName="opacity"
      values="1; 0.4; 1"
      dur="2.7s"
      repeatCount="indefinite"
    />
  </path>

  <!-- Metadata comment -->
  <!--
    Seed: c37c292f6375137112763b9bd37b1d74a47f0aa385acedb2a12dbe8a15e0e396
    TX type: simple
    Gamma: rose
    Stone: rhombus
    Lightnings: -1.0
    Glitch: -1.0
    Sparks: 2
    Spark Address: sp1pgss8legl06vrs7dmxcre8nkck65y782ke9qt8j0tejcvcd8h5nl92h47mn6g7
  -->
</svg>
