<svg width="100%" height="100%" viewBox="0 0 400 400" xmlns="http://www.w3.org/2000/svg">
  <!-- Latar belakang putih -->
  <rect x="0" y="0" width="400" height="400" fill="#fff"/>
  
  <!-- Definisi bintang simetris -->
  <g fill="#111" stroke="#000" stroke-width="2">
    <!-- Bintang 1 (tanpa rotasi) -->
    <polygon
      points="200,100 224.85,175.15 300,200 224.85,224.85 200,300 175.15,224.85 100,200 175.15,175.15"
      />
    <!-- Bintang 2 (rotasi 22.5°) -->
    <polygon
      points="200,100 224.85,175.15 300,200 224.85,224.85 200,300 175.15,224.85 100,200 175.15,175.15"
      transform="rotate(22.5 200 200)"/>
    <!-- Bintang 3 (rotasi 45°) -->
    <polygon
      points="200,100 224.85,175.15 300,200 224.85,224.85 200,300 175.15,224.85 100,200 175.15,175.15"
      transform="rotate(45 200 200)"/>
    <!-- Bintang 4 (rotasi 67.5°) -->
    <polygon
      points="200,100 224.85,175.15 300,200 224.85,224.85 200,300 175.15,224.85 100,200 175.15,175.15"
      transform="rotate(67.5 200 200)"/>
  </g>
</svg>
