<?xml version="1.0" encoding="UTF-8"?>
<svg width="100" height="100" viewBox="0 0 100 100" xmlns="http://www.w3.org/2000/svg">
  <circle cx="50" cy="50" r="48" fill="#F7931A"/>
  <path d="M68.4 42.7c.9-6-3.6-9.2-9.6-11.3l2-7.9-4.8-1.2-1.9 7.6c-1.3-.3-2.6-.6-3.9-.9l1.9-7.6-4.8-1.2-2 7.9c-1.1-.2-2.1-.5-3-.7l.1-.3-6.6-1.6-1.3 5.2s3.5.8 3.4.9c1.9.5 2.2 1.7 2.1 2.7l-2.1 8.4c.1.1.3.3.5.5l-.5-.1-3.1 12.3c-.2.6-1.1 1.5-2.1 1.1.1 0 3.4.8 3.4.8l-2.1 8.1 5.4 1.3c1 .2 2 .4 3 .6l-2 7.9 4.8 1.2 2-7.9c1.3.4 2.6.7 3.8 1l-1.9 7.7 4.8 1.2 2-7.9c8.2 1.5 14.3.9 16.9-6.3 2.1-5.8.1-9.1-4.3-11.3 3.1-.7 5.4-2.8 6-7.1zm-10.7 15c-1.4 5.7-11 2.6-14.1 1.9l2.5-10.1c3.1.8 13 .7 11.6 8.2zm1.4-15.2c-1.3 5.2-9.3 2.6-11.9 1.9l2.3-9.1c2.6.7 11.1.5 9.6 7.2z" fill="#FFF"/>
</svg>
